<svg height="1555" viewBox="-34.548 -2.9 327.4 206.499" width="2500" xmlns="http://www.w3.org/2000/svg" xmlns:xlink="http://www.w3.org/1999/xlink"><linearGradient id="a" gradientUnits="userSpaceOnUse" x1="73.646" x2="258.584" y1="98.501" y2="51.303"><stop offset="0" stop-color="#5eb77d" stop-opacity=".3"/><stop offset=".6" stop-color="#5eb77d"/><stop offset=".964" stop-color="#5eb77d" stop-opacity=".363"/><stop offset="1" stop-color="#5eb77d" stop-opacity=".3"/></linearGradient><linearGradient id="b" gradientUnits="userSpaceOnUse" x1="152.683" x2="269.159" y1="123.507" y2="83.401"><stop offset="0" stop-color="#0f0f18" stop-opacity=".1"/><stop offset=".6" stop-color="#0f0f18" stop-opacity=".95"/><stop offset="1" stop-color="#0f0f18" stop-opacity=".3"/></linearGradient><linearGradient id="c" gradientUnits="userSpaceOnUse" x1="137.827" x2="226.852" y1="44.147" y2="44.147"><stop offset="0" stop-color="#e72f64"/><stop offset=".9" stop-color="#e72f64" stop-opacity=".1"/></linearGradient><linearGradient id="d" gradientUnits="userSpaceOnUse" x1="173.658" x2="179.726" y1="84.307" y2="54.668"><stop offset="0" stop-color="#68102f"/><stop offset=".15" stop-color="#67102f" stop-opacity=".75"/><stop offset="1" stop-color="#68102f" stop-opacity="0"/></linearGradient><path d="m214.5 93.4c-16.7 6.2-35.3 6.9-52.5 2.7-14.2-3.3-27.3-10-40.8-14.8-21.5-7.7-32.3 0-46.3 16.1 5.6-13.7 17.6-29.4 41.6-27.4 15.9 1.3 30.4 5.9 42 7.5 54.5 7.5 93.5-23.3 92.7-55.7 2.9 16.1 4.5 54.1-36.7 71.6z" fill="url(#a)" transform="translate(-70.848 -10.701)"/><path d="m204.6 135.6c-25 1.6-46.8-10.9-58.4-31 39.3 34.8 116.7 7.4 113.1-50 12.1 37.6-15.4 78.5-54.7 81z" fill="url(#b)" transform="translate(-70.848 -10.701)"/><path d="m-14.448 164.099h-20.1v39.1h20.1c12.9 0 20.2-9.4 20.2-19.5 0-10.2-7.1-19.6-20.2-19.6zm0 30.3h-10.8v-21.7h10.8c7 0 10.9 5.2 10.9 10.9-.1 5.6-4 10.8-10.9 10.8zm287.1-30.3h-20.1v39.1h20.1c12.9 0 20.2-9.4 20.2-19.5 0-10.2-7.1-19.6-20.2-19.6zm0 30.3h-10.8v-21.7h10.8c7 0 10.9 5.2 10.9 10.9 0 5.6-4 10.8-10.9 10.8zm-262.9-30.3h22.9c8.5 0 15 6 15 14.6s-6.6 14.7-15.1 14.7h-13.5v9.8h-9.3zm9.3 8.4v12.1h13.1c8.1.1 8.1-12.2 0-12.1zm94.7-8.4-8.1 23.9-8.7-23.9h-11.8l-8.7 23.9-8.1-23.9h-9.4l12.3 39.1h9.3l10.6-29.2 10.6 29.2h9.3l12.3-39.1zm55.8 0h24c4.2 0 8 1.2 10.8 4 5.9 5.7 4.7 17-2.5 21l7.2 14.1h-10.2l-5.5-11.7h-14.6v11.7h-9.3v-39.1zm9.3 8.5v10.4h14.1c3.6.1 5.7-2 5.8-5.2 0-3.5-2.2-5.2-5.8-5.1zm34.6-8.5h9.3v30.1h25.9v8.9h-35.2zm-69.4-.5c-12.6 0-21.3 7.9-21.3 20s8.7 20 21.3 20 21.3-7.9 21.3-20c-.1-12.1-8.7-20-21.3-20zm0 30.8c-7.1 0-12-4.3-12-10.8s4.9-10.8 12-10.8 12 4.3 12 10.8-5 10.8-12 10.8z" fill="#0f0f18"/><path d="m158.6 77.5c-1.5-36.5 31.2-66.6 68.3-60.6-41.5-19.8-88.9 10.2-89 56.4 7.5 1.7 14.5 3.4 20.7 4.2z" fill="url(#c)" transform="translate(-70.848 -10.701)"/><path d="m158.6 77.5c-1.5-36.5 31.2-66.6 68.3-60.6-41.5-19.8-88.9 10.2-89 56.4 7.5 1.7 14.5 3.4 20.7 4.2z" fill="url(#d)" opacity=".5" transform="translate(-70.848 -10.701)"/></svg>